<?xml version="1.0" encoding="utf-8"?>
<!-- Generator: Adobe Illustrator 22.1.0, SVG Export Plug-In . SVG Version: 6.00 Build 0)  -->
<svg version="1.1" id="Layer_1" xmlns="http://www.w3.org/2000/svg" xmlns:xlink="http://www.w3.org/1999/xlink" x="0px" y="0px"
	 viewBox="0 0 792 612" style="enable-background:new 0 0 792 612;" xml:space="preserve">
<style type="text/css">
	.st0{fill:#FFFFFF;}
	.st1{fill:#4F2683;}
</style>
<g>
	<path class="st0" d="M672,175.7L672,175.7L672,175.7l-121.9,23.6l-1.3,9.9l-33,9l18.1,2l14.4,19.1L672,175.7L672,175.7L672,175.7
		L672,175.7L672,175.7L672,175.7L672,175.7L672,175.7z"/>
	<g>
		<polygon class="st1" points="157.6,386.2 171.8,386.2 171.8,382.1 157.6,382.1 157.6,370 176.8,370 176.8,365.8 153,365.8 
			153,404.5 177.9,404.5 177.9,400.3 157.6,400.3 		"/>
		<path class="st1" d="M209,376.3c-4.5,0-8,2.4-10.4,4.7v-4.1H194v27.6h4.6v-19.9c2.9-2.7,5.7-4.5,9-4.5c3.5,0,5.1,1.7,5.1,5.4v19
			h4.5v-19.9C217.1,379.3,214.2,376.3,209,376.3z"/>
		<path class="st1" d="M241.8,367h-4.5v9.8h-4.8v3.7h4.8v17.2c0,4.8,1.9,7.1,7.7,7.1c1.4,0,3.1-0.2,3.9-0.3v-3.7
			c-0.7,0.2-1.8,0.4-2.8,0.4c-3.4,0-4.3-1.5-4.3-4.4v-16.2h7.2v-3.7h-7.2V367z"/>
		<path class="st1" d="M270.1,382H270v-5.1h-4.5v27.6h4.5v-17.9c2-3.9,5.3-6.2,9.7-6.2c0.2,0,1.2,0,1.3,0.1l0.3-4.2h-0.6
			C275.4,376.3,272.1,378.8,270.1,382z"/>
		<path class="st1" d="M306.4,376.3c-5.8,0-12.5,4.3-12.5,14.4c0,9.6,6,14.4,12.5,14.4c5.2,0,8.7-2.2,11.3-5.9l-2.6-2.3
			c-2.1,2.9-4.3,4.5-8.3,4.5c-4.6,0-8.2-3.4-8.3-9.6h19.5v-0.9C317.9,380.9,312.9,376.3,306.4,376.3z M298.5,388.3
			c0.6-5.7,4.1-8.3,7.9-8.3c4.6,0,6.9,3.4,7.3,8.3H298.5z"/>
		<path class="st1" d="M348.4,376.3c-4.1,0-7,2.1-9.1,4.4v-3.8h-4.5V415h4.5v-14c2.4,2.5,5.2,4,8.6,4c6.8,0,11.7-4.7,11.7-14.3
			S354.7,376.3,348.4,376.3z M347.3,401.3c-2.9,0-5.6-1.5-8-4.2v-12.7c2.3-2.5,4.9-4.2,8.1-4.2c4.4,0,7.8,3.5,7.8,10.5
			C355.2,398,352.1,401.3,347.3,401.3z"/>
		<path class="st1" d="M381.2,382h-0.1v-5.1h-4.5v27.6h4.5v-17.9c2-3.9,5.3-6.2,9.7-6.2c0.2,0,1.2,0,1.3,0.1l0.3-4.2h-0.6
			C386.5,376.3,383.3,378.8,381.2,382z"/>
		<path class="st1" d="M417.5,376.3c-5.8,0-12.5,4.3-12.5,14.4c0,9.6,6,14.4,12.5,14.4c5.2,0,8.7-2.2,11.3-5.9l-2.6-2.3
			c-2.1,2.9-4.3,4.5-8.3,4.5c-4.6,0-8.2-3.4-8.3-9.6H429v-0.9C429,380.9,424,376.3,417.5,376.3z M409.6,388.3
			c0.6-5.7,4.1-8.3,7.9-8.3c4.6,0,6.9,3.4,7.3,8.3H409.6z"/>
		<path class="st1" d="M460.8,376.3c-4.5,0-8,2.4-10.4,4.7v-4.1h-4.6v27.6h4.6v-19.9c2.9-2.7,5.7-4.5,9-4.5c3.5,0,5.1,1.7,5.1,5.4
			v19h4.5v-19.9C469,379.3,466.1,376.3,460.8,376.3z"/>
		<path class="st1" d="M498.1,376.3c-5.8,0-12.5,4.3-12.5,14.4c0,9.6,6,14.4,12.5,14.4c5.2,0,8.7-2.2,11.3-5.9l-2.6-2.3
			c-2.1,2.9-4.3,4.5-8.3,4.5c-4.6,0-8.2-3.4-8.3-9.6h19.5v-0.9C509.6,380.9,504.7,376.3,498.1,376.3z M490.2,388.3
			c0.6-5.7,4.1-8.3,7.9-8.3c4.6,0,6.9,3.4,7.3,8.3H490.2z"/>
		<path class="st1" d="M544.8,396.8c-2.9,2.7-5.6,4.4-9,4.4c-3.5,0-5.1-1.7-5.1-5.4v-19h-4.5v19.9c0,5.2,2.9,8.2,8.2,8.2
			c4.5,0,8-2.3,10.4-4.7v4.1h4.6v-27.6h-4.6V396.8z"/>
		<path class="st1" d="M572.4,382h-0.1v-5.1h-4.5v27.6h4.5v-17.9c2-3.9,5.3-6.2,9.7-6.2c0.2,0,1.2,0,1.3,0.1l0.3-4.2h-0.6
			C577.7,376.3,574.4,378.8,572.4,382z"/>
		<path class="st1" d="M608.2,388.2c-4.3-1-6.5-1.9-6.5-4.5c0-1.9,1.6-3.7,5.6-3.7c3.1,0,5.9,1.4,8,3.3l2.4-3c-2.6-2.4-5.7-4-10.6-4
			c-6,0-9.7,3.4-9.7,7.5c0,5.3,4,6.9,9.9,8.3c4.7,1.1,7.1,2.1,7.1,4.9c0,2.8-2.4,4.3-6.6,4.3c-3.8,0-6.5-1.6-8.6-3.8l-2.7,2.7
			c2.3,2.7,6.3,4.7,11.3,4.7c6.3,0,11-2.8,11-8.1C618.8,391.2,614.5,389.7,608.2,388.2z"/>
		<path class="st1" d="M650.6,376.3c-4.5,0-8,2.4-10.4,4.7v-15.2h-4.6v38.7h4.6v-19.9c2.9-2.7,5.7-4.5,9-4.5c3.5,0,5.1,1.7,5.1,5.4
			v19h4.5v-19.9C658.8,379.3,655.9,376.3,650.6,376.3z"/>
		<rect x="677.2" y="376.9" class="st1" width="4.5" height="27.6"/>
		<rect x="677.1" y="366.6" class="st1" width="4.7" height="4.4"/>
		<path class="st1" d="M714.1,376.3c-4.1,0-7,2.1-9.1,4.4v-3.8h-4.5V415h4.5v-14c2.4,2.5,5.2,4,8.6,4c6.8,0,11.7-4.7,11.7-14.3
			S720.4,376.3,714.1,376.3z M713,401.3c-2.9,0-5.6-1.5-8-4.2v-12.7c2.3-2.5,4.9-4.2,8.1-4.2c4.4,0,7.8,3.5,7.8,10.5
			C720.8,398,717.8,401.3,713,401.3z"/>
		<path class="st1" d="M161,236.8l-18.5,71c-2.5,9.8-4.7,18.3-6.6,26.7h-0.3c-1.5-7.8-4-17.2-6.5-27.3l-17.4-70.4h-8.5L86,306.6
			c-2.6,10.3-5.1,21-6.6,27.9h-0.3c-1.6-7-4.1-17.6-6.9-28L54,236.8h-7.5l28.9,108.5h7.3l24.5-98.4h0.3l24.3,98.4h7.5l28.9-108.5
			H161z"/>
		<path class="st1" d="M230,324.8c-5.9,10.3-12.8,16-24.8,16c-14.2,0-25.8-12.6-25.8-33.6h56.1v-1c0-24.2-12.3-39.4-30.5-39.4
			c-16.4,0-32.7,13.3-32.7,40c0,25.4,15.1,40.2,32.4,40.2c15,0,24-7.3,30.3-18.9L230,324.8z M204.9,272.9
			c14.8,0,22.3,12.6,23.3,28.4h-48.7C181.4,282.3,192.9,272.9,204.9,272.9z"/>
		<path class="st1" d="M307.1,325.2c0-13.8-7.6-18.9-29.3-24.3c-15.1-3.7-19.5-7.2-19.5-15.2c0-6.5,5.4-12.8,18.2-12.8
			c10.3,0,16.9,3.7,22.7,10l4.7-4.8c-6.5-6.7-14.8-11.3-27.3-11.3c-16.6,0-25.4,9.4-25.4,19.2c0,11.9,6.5,17,25.9,21.8
			c17.3,4.1,22.9,8.1,22.9,17.4s-7.5,15.2-22,15.2c-11,0-18-4.5-23.9-12l-5.1,4c5.6,8.1,15.2,14.2,28.9,14.2
			C295.2,346.6,307.1,338.4,307.1,325.2z"/>
		<path class="st1" d="M350,346.3c3.2,0,6.2-0.3,8.6-0.7V339c-2.2,0.7-5.1,1-8.1,1c-9.7,0-12.5-4.7-12.5-12.9v-52.5h20.1v-6.3h-20.1
			v-28h-7v28h-13.5v6.3h13.5v53.5C331.1,341.2,337.3,346.3,350,346.3z"/>
		<path class="st1" d="M404.3,266.7c-16.4,0-32.7,13.3-32.7,40c0,25.4,15.1,40.2,32.4,40.2c15,0,24-7.3,30.3-18.9l-5.1-3.2
			c-5.9,10.3-12.8,16-24.8,16c-14.2,0-25.8-12.6-25.8-33.6h56.1v-1C434.8,282,422.4,266.7,404.3,266.7z M378.8,301.3
			c1.9-19.1,13.3-28.4,25.4-28.4c14.8,0,22.3,12.6,23.3,28.4H378.8z"/>
		<path class="st1" d="M494.9,273.3l1.2-6.6H494c-15.4,0-25.2,7.6-31.7,17.7H462v-16.1h-7v77h7v-50.7c6.3-13.6,17.3-21.3,30.3-21.3
			H494.9z"/>
		<path class="st1" d="M572,345.3v-55.9c0-13.9-7.3-22.7-23.3-22.7c-11.3,0-21.3,6.3-29.8,14.4v-12.8h-7v77h7v-57.8
			c9.5-9.1,18.5-14.7,29.2-14.7c11.7,0,16.9,5.7,16.9,17.4v55H572z"/>
		<g>
			<path class="st1" d="M343.1,218.6l-1.3-0.2c-5.4-1-10.7-1.9-16-2.6l-1.3-0.2l0.5-3.9l1.3,0.2c5.3,0.7,10.8,1.6,16.2,2.6l1.3,0.2
				L343.1,218.6z"/>
		</g>
		<g>
			<path class="st1" d="M311.1,214.3l-1.3-0.1c-5.3-0.4-10.7-0.5-15.9-0.5h-1.6v-3.9h1.6c5.3,0,10.7,0.2,16.1,0.6l1.3,0.1
				L311.1,214.3z"/>
		</g>
		<g>
			<path class="st1" d="M260.3,216.4l-0.6-3.9l1.3-0.2c5.3-0.9,10.8-1.5,16.3-1.9l1.3-0.1l0.3,3.9l-1.3,0.1
				c-5.4,0.4-10.8,1.1-16,1.9L260.3,216.4z"/>
		</g>
		<g>
			<path class="st1" d="M487.4,245.1c-0.5,0-1,0-1.5,0l-1.3,0l0-3.9l1.3,0c5.6,0,11-0.2,16.1-0.6l1.3-0.1l0.3,3.9l-1.3,0.1
				C497.6,244.9,492.5,245.1,487.4,245.1z"/>
		</g>
		<g>
			<path class="st1" d="M470.7,244.5l-1.3-0.1c-5.2-0.4-10.7-1-16.3-1.7l-1.3-0.2l0.5-3.9l1.3,0.2c5.6,0.7,11,1.3,16.1,1.7l1.3,0.1
				L470.7,244.5z"/>
		</g>
		<g>
			<path class="st1" d="M406.2,234.1l-1.3-0.3c-5.1-1.2-10.4-2.4-15.9-3.8l-1.2-0.3l1-3.8l1.2,0.3c5.4,1.3,10.7,2.6,15.8,3.8
				l1.3,0.3L406.2,234.1z"/>
		</g>
		<g>
			<path class="st1" d="M438.3,240.5l-1.3-0.2c-5.2-0.9-10.6-1.9-16.1-3l-1.3-0.3l0.8-3.9l1.3,0.3c5.5,1.1,10.8,2.1,15.9,3l1.3,0.2
				L438.3,240.5z"/>
		</g>
		<g>
			<path class="st1" d="M517.4,242.4l-0.8-3.8l1.3-0.3c5.3-1.1,10.3-2.5,15.4-4.3l1.2-0.4l1.3,3.7l-1.2,0.4
				c-5.2,1.9-10.4,3.4-15.9,4.5L517.4,242.4z"/>
		</g>
		<g>
			<path class="st1" d="M374.6,226.3l-1.2-0.3c-2-0.5-3.9-1.1-6-1.6c-3.2-0.9-6.5-1.7-9.7-2.5l-1.2-0.3l0.9-3.8l1.2,0.3
				c3.3,0.8,6.6,1.7,9.9,2.6c2,0.6,4,1.1,5.9,1.6l1.2,0.3L374.6,226.3z"/>
		</g>
		<g>
			<path class="st1" d="M176.4,259.6l-3.1-2.4l0.8-1c0.2-0.2,4-5.1,12-11.7l1-0.8l2.5,3l-1,0.8c-7.6,6.3-11.3,11-11.4,11.1
				L176.4,259.6z"/>
		</g>
		<g>
			<path class="st1" d="M200.5,238.8l-2.1-3.3l1.1-0.7c4.6-2.9,9.4-5.6,14.4-8l1.2-0.6l1.7,3.5l-1.2,0.6c-4.9,2.4-9.6,5-14,7.8
				L200.5,238.8z"/>
		</g>
		<g>
			<path class="st1" d="M229.2,224.6l-1.3-3.7l1.2-0.4c5.1-1.8,10.4-3.5,15.7-4.8l1.2-0.3l1,3.8l-1.2,0.3
				c-5.2,1.3-10.4,2.9-15.4,4.7L229.2,224.6z"/>
		</g>
	</g>
	<path class="st1" d="M672,175.8L672,175.8L672,175.8L672,175.8L672,175.8L672,175.8L672,175.8l-121.9,23.6l-1.3,9.9l-33,9l18.1,2
		l14.4,19.1L672,175.8L672,175.8L672,175.8z M538.8,217.8L646.7,185l-96.8,47.3L538.8,217.8z M554.4,207.7l0.5-3.8l50.8-9.8
		L554.4,207.7z"/>
</g>
</svg>
